<svg xmlns="http://www.w3.org/2000/svg" width="858" height="222" viewBox="0 0 858 222" role="img"><title>Nandscape</title><g transform="translate(48 48) scale(1.76471)"><path d="M0 8C14 -2.67 30 -2.67 44 8H63Q68 8 68 13V29Q68 34 63 34H42L37 40H27L22 34H5Q0 34 0 29Z" fill="#FF751A"/><path d="M14 47Q14 42 19 42H20L25 48H39L44 42H63Q68 42 68 47V63Q68 68 63 68H19Q14 68 14 63Z" fill="#3772FF"/></g><path transform="translate(190.41 150) scale(0.05638)" d="M134.64 0V-1490H475.28L945.74 -735.71Q981.62 -677.65 1018.86 -609.93Q1056.10 -542.21 1094.52 -459.22Q1132.94 -376.23 1171.48 -272.18H1140.16Q1133.32 -355.48 1127.43 -449.09Q1121.54 -542.71 1117.84 -628.96Q1114.14 -715.21 1114.14 -774.71V-1490H1426.18V0H1084.62L657.48 -683.85Q610.22 -761.21 570.02 -833.43Q529.82 -905.65 486.41 -993.58Q443.00 -1081.50 382.80 -1203.19H421.58Q428.20 -1095.42 434.09 -996.03Q439.98 -896.63 443.56 -816.37Q447.14 -736.11 447.14 -684.77V0ZM1960.26 21.68Q1853.72 21.68 1769.38 -15.89Q1685.04 -53.46 1636.74 -127.76Q1588.44 -202.06 1588.44 -312.60Q1588.44 -406.44 1622.66 -469.14Q1656.88 -531.84 1716.33 -570.12Q1775.78 -608.40 1851.43 -628.37Q1927.08 -648.34 2009.94 -656.18Q2106.70 -665.94 2166.19 -674.56Q2225.68 -683.18 2253.48 -701.53Q2281.28 -719.88 2281.28 -756.02V-760.94Q2281.28 -808.80 2260.95 -841.91Q2240.62 -875.02 2201.58 -892.65Q2162.54 -910.28 2105.60 -910.28Q2048.28 -910.28 2005.32 -892.84Q1962.36 -875.40 1934.96 -846.27Q1907.56 -817.14 1895.50 -780.84L1620.44 -826.50Q1648.86 -924.18 1715.92 -992.21Q1782.98 -1060.24 1882.59 -1096.12Q1982.20 -1132 2106.54 -1132Q2196.56 -1132 2281.56 -1110.67Q2366.56 -1089.34 2434.14 -1043.94Q2501.72 -998.54 2541.44 -926.52Q2581.16 -854.50 2581.16 -752.66V0H2296.70V-155.24H2286.86Q2259.76 -103.28 2214.79 -63.40Q2169.82 -23.52 2106.60 -0.92Q2043.38 21.68 1960.26 21.68ZM2044.72 -188.62Q2115.56 -188.62 2169.17 -216.82Q2222.78 -245.02 2253.11 -292.94Q2283.44 -340.86 2283.44 -399.68V-520.66Q2269.74 -511.44 2243.00 -503.37Q2216.26 -495.30 2183.34 -488.92Q2150.42 -482.54 2118.34 -477.85Q2086.26 -473.16 2061.34 -469.62Q2006.06 -462.16 1964.14 -444.28Q1922.22 -426.40 1899.02 -396.46Q1875.82 -366.52 1875.82 -321.42Q1875.82 -278.00 1897.72 -248.45Q1919.62 -218.90 1957.58 -203.76Q1995.54 -188.62 2044.72 -188.62ZM3095.72 -647.32V0H2795.84V-1118H3079.00L3083.78 -838.90H3065.80Q3109.78 -978.78 3199.42 -1055.39Q3289.06 -1132 3430.64 -1132Q3546.88 -1132 3633.23 -1081.45Q3719.58 -1030.90 3767.35 -936.59Q3815.12 -842.28 3815.12 -711.08V0H3515.24V-658.82Q3515.24 -762.98 3461.51 -822.21Q3407.78 -881.44 3312.92 -881.44Q3249.66 -881.44 3200.51 -853.73Q3151.36 -826.02 3123.54 -773.87Q3095.72 -721.72 3095.72 -647.32ZM4438.62 18.60Q4310.42 18.60 4206.93 -47.81Q4103.44 -114.22 4043.44 -242.60Q3983.44 -370.98 3983.44 -557.08Q3983.44 -748.12 4045.29 -876.00Q4107.14 -1003.88 4210.36 -1067.94Q4313.58 -1132 4436.92 -1132Q4531.88 -1132 4595.07 -1100.05Q4658.26 -1068.10 4697.08 -1021.25Q4735.90 -974.40 4755.52 -929.82H4765.20V-1490H5065.08V0H4770.12V-178.94H4755.52Q4734.82 -133.90 4695.27 -88.48Q4655.72 -43.06 4593.11 -12.23Q4530.50 18.60 4438.62 18.60ZM4530.96 -221.78Q4607.58 -221.78 4661.38 -263.94Q4715.18 -306.10 4743.35 -381.66Q4771.52 -457.22 4771.52 -558Q4771.52 -659.86 4743.58 -734.54Q4715.64 -809.22 4661.84 -850.42Q4608.04 -891.62 4530.96 -891.62Q4452.50 -891.62 4399.01 -849.04Q4345.52 -806.46 4318.35 -731.32Q4291.18 -656.18 4291.18 -558Q4291.18 -459.90 4318.58 -383.84Q4345.98 -307.78 4399.70 -264.78Q4453.42 -221.78 4530.96 -221.78ZM5724.18 21.84Q5589.20 21.84 5485.12 -16.79Q5381.04 -55.42 5315.21 -128.71Q5249.38 -202.00 5229.92 -305.56L5509.46 -353.58Q5531.30 -275.62 5586.19 -236.67Q5641.08 -197.72 5732.98 -197.72Q5818.66 -197.72 5868.45 -230.44Q5918.24 -263.16 5918.24 -313.26Q5918.24 -357.22 5882.87 -385.19Q5847.50 -413.16 5773.68 -428.38L5581.20 -468.06Q5419.48 -501.36 5339.54 -580.64Q5259.60 -659.92 5259.60 -785.48Q5259.60 -892.82 5318.19 -970.37Q5376.78 -1047.92 5482.16 -1089.96Q5587.54 -1132 5728.68 -1132Q5861.50 -1132 5958.47 -1095.34Q6055.44 -1058.68 6115.12 -991.97Q6174.80 -925.26 6195.48 -833.84L5929.34 -786.98Q5911.74 -844.28 5863.37 -880.59Q5815.00 -916.90 5733.46 -916.90Q5659.38 -916.90 5609.35 -885.75Q5559.32 -854.60 5559.32 -803.50Q5559.32 -761.48 5591.63 -732.35Q5623.94 -703.22 5703.04 -686.70L5903.90 -646.70Q6066.16 -613.94 6145.37 -539.25Q6224.58 -464.56 6224.58 -344.70Q6224.58 -234.82 6160.44 -152.38Q6096.30 -69.94 5983.57 -24.05Q5870.84 21.84 5724.18 21.84ZM6885.78 21.84Q6717.58 21.84 6594.98 -50.43Q6472.38 -122.70 6405.95 -252.43Q6339.52 -382.16 6339.52 -554.16Q6339.52 -727.54 6405.95 -857.50Q6472.38 -987.46 6594.98 -1059.73Q6717.58 -1132 6885.78 -1132Q6985.68 -1132 7069.56 -1106.14Q7153.44 -1080.28 7218.34 -1032.14Q7283.24 -984.00 7325.16 -915.16Q7367.08 -846.32 7383.06 -760.36L7104.22 -708.12Q7094.92 -751.66 7076.13 -786.31Q7057.34 -820.96 7030.21 -845.57Q7003.08 -870.18 6967.61 -883.06Q6932.14 -895.94 6889.02 -895.94Q6808.88 -895.94 6754.70 -852.83Q6700.52 -809.72 6672.81 -733.08Q6645.10 -656.44 6645.10 -555.24Q6645.10 -455.50 6672.81 -378.55Q6700.52 -301.60 6754.70 -257.91Q6808.88 -214.22 6889.02 -214.22Q6932.60 -214.22 6968.53 -227.60Q7004.46 -240.98 7032.32 -266.32Q7060.18 -291.66 7078.97 -328.04Q7097.76 -364.42 7106.52 -409.42L7384.90 -357.72Q7369.38 -269.22 7327.23 -199.38Q7285.08 -129.54 7220.22 -79.94Q7155.36 -30.34 7070.75 -4.25Q6986.14 21.84 6885.78 21.84ZM7882.46 21.68Q7775.92 21.68 7691.58 -15.89Q7607.24 -53.46 7558.94 -127.76Q7510.64 -202.06 7510.64 -312.60Q7510.64 -406.44 7544.86 -469.14Q7579.08 -531.84 7638.53 -570.12Q7697.98 -608.40 7773.63 -628.37Q7849.28 -648.34 7932.14 -656.18Q8028.90 -665.94 8088.39 -674.56Q8147.88 -683.18 8175.68 -701.53Q8203.48 -719.88 8203.48 -756.02V-760.94Q8203.48 -808.80 8183.15 -841.91Q8162.82 -875.02 8123.78 -892.65Q8084.74 -910.28 8027.80 -910.28Q7970.48 -910.28 7927.52 -892.84Q7884.56 -875.40 7857.16 -846.27Q7829.76 -817.14 7817.70 -780.84L7542.64 -826.50Q7571.06 -924.18 7638.12 -992.21Q7705.18 -1060.24 7804.79 -1096.12Q7904.40 -1132 8028.74 -1132Q8118.76 -1132 8203.76 -1110.67Q8288.76 -1089.34 8356.34 -1043.94Q8423.92 -998.54 8463.64 -926.52Q8503.36 -854.50 8503.36 -752.66V0H8218.90V-155.24H8209.06Q8181.96 -103.28 8136.99 -63.40Q8092.02 -23.52 8028.80 -0.92Q7965.58 21.68 7882.46 21.68ZM7966.92 -188.62Q8037.76 -188.62 8091.37 -216.82Q8144.98 -245.02 8175.31 -292.94Q8205.64 -340.86 8205.64 -399.68V-520.66Q8191.94 -511.44 8165.20 -503.37Q8138.46 -495.30 8105.54 -488.92Q8072.62 -482.54 8040.54 -477.85Q8008.46 -473.16 7983.54 -469.62Q7928.26 -462.16 7886.34 -444.28Q7844.42 -426.40 7821.22 -396.46Q7798.02 -366.52 7798.02 -321.42Q7798.02 -278.00 7819.92 -248.45Q7841.82 -218.90 7879.78 -203.76Q7917.74 -188.62 7966.92 -188.62ZM8718.04 418V-1118H9013.00V-929.82H9027.60Q9048.22 -974.40 9086.54 -1021.25Q9124.86 -1068.10 9188.05 -1100.05Q9251.24 -1132 9346.20 -1132Q9470.54 -1132 9573.26 -1067.94Q9675.98 -1003.88 9737.83 -876.00Q9799.68 -748.12 9799.68 -557.08Q9799.68 -370.98 9739.68 -242.60Q9679.68 -114.22 9576.69 -47.81Q9473.70 18.60 9344.50 18.60Q9253.62 18.60 9190.51 -12.23Q9127.40 -43.06 9088.08 -88.48Q9048.76 -133.90 9027.60 -178.94H9017.92V418ZM9252.16 -221.78Q9330.70 -221.78 9383.92 -264.78Q9437.14 -307.78 9464.54 -383.84Q9491.94 -459.90 9491.94 -558Q9491.94 -656.18 9464.77 -731.32Q9437.60 -806.46 9384.38 -849.04Q9331.16 -891.62 9252.16 -891.62Q9175.08 -891.62 9121.28 -850.42Q9067.48 -809.22 9039.54 -734.54Q9011.60 -659.86 9011.60 -558Q9011.60 -457.22 9039.77 -381.66Q9067.94 -306.10 9121.97 -263.94Q9176.00 -221.78 9252.16 -221.78ZM10473.72 21.84Q10302.54 21.84 10178.56 -48.27Q10054.58 -118.38 9988.11 -247.38Q9921.64 -376.38 9921.64 -553.24Q9921.64 -725.78 9987.69 -855.97Q10053.74 -986.16 10174.53 -1059.08Q10295.32 -1132 10458.66 -1132Q10568.18 -1132 10663.32 -1097.10Q10758.46 -1062.20 10830.31 -991.84Q10902.16 -921.48 10942.54 -815.02Q10982.92 -708.56 10982.92 -564.90V-480.72H10044.72V-669.44H10836.78L10696.62 -618.84Q10696.62 -706.16 10669.95 -770.60Q10643.28 -835.04 10590.94 -870.58Q10538.60 -906.12 10460.82 -906.12Q10383.04 -906.12 10328.86 -870.12Q10274.68 -834.12 10246.40 -772.44Q10218.12 -710.76 10218.12 -632.18V-499.32Q10218.12 -402.32 10250.59 -336.34Q10283.06 -270.36 10341.93 -237.20Q10400.80 -204.04 10478.50 -204.04Q10531.00 -204.04 10573.93 -218.99Q10616.86 -233.94 10647.76 -263.26Q10678.66 -292.58 10694.80 -335.54L10966.00 -285.38Q10938.92 -192.74 10872.06 -123.61Q10805.20 -54.48 10704.52 -16.32Q10603.84 21.84 10473.72 21.84Z" fill="#E6E8E6"/></svg>
